<svg width="316" height="225" viewBox="0 0 316 225" fill="none" xmlns="http://www.w3.org/2000/svg">
<path d="M271.256 195.65C277.056 195.65 281.406 197.051 284.306 199.851C287.206 202.551 288.655 205.65 288.655 209.15C288.655 213.15 287.005 216.75 283.705 219.95C280.405 223.05 275.655 224.601 269.455 224.601C266.455 224.601 263.955 223.851 261.955 222.351C260.055 220.951 258.605 219.2 257.605 217.101C256.705 214.901 256.256 212.7 256.256 210.5C256.256 206.5 257.555 203.05 260.155 200.15C262.855 197.15 266.556 195.65 271.256 195.65ZM55.8008 111.65C59.3006 111.65 62.5509 112.25 65.5508 113.45C68.5505 114.55 70.9501 116.4 72.75 119C74.5499 121.6 75.4501 125.1 75.4502 129.5C75.4502 130.2 75.4008 130.901 75.3008 131.601C75.3008 132.3 75.2504 133 75.1504 133.7C75.0504 134.4 74.9002 135.15 74.7002 135.95C74.6002 136.65 74.5004 137.4 74.4004 138.2L52.6504 144.5C52.8503 143.7 53.0006 142.9 53.1006 142.101C53.3006 141.301 53.4004 140.5 53.4004 139.7C53.4004 136.7 52.85 134.55 51.75 133.25C50.75 131.85 49.4 131.15 47.7002 131.15C46.8003 131.15 45.5005 131.651 43.8008 132.65C42.1008 133.55 40.5504 134.851 39.1504 136.551C37.8506 138.151 37.2002 139.95 37.2002 141.95C37.2002 145.25 38.5502 148 41.25 150.2C44.05 152.3 47.2506 154.45 50.8506 156.65C52.5505 157.65 54.4508 159.25 56.5508 161.45C58.6507 163.55 60.4502 166.45 61.9502 170.15C63.5502 173.75 64.3506 178.401 64.3506 184.101C64.3506 191.5 62.5007 198.001 58.8008 203.601C55.2008 209.201 50.3006 213.601 44.1006 216.801C37.9007 219.901 31.0506 221.45 23.5508 221.45C19.5509 221.45 15.5506 220.401 11.5508 218.301C7.55078 216.101 3.7 212.65 0 207.95L11.1006 186.2C12.2006 188.1 13.8004 189.901 15.9004 191.601C18.1004 193.301 20.4008 194.65 22.8008 195.65C25.2006 196.65 27.2503 197.15 28.9502 197.15C31.5502 197.15 34.0008 196.35 36.3008 194.75C38.7004 193.15 39.9003 191 39.9004 188.301C39.9004 184.801 38.3006 181.6 35.1006 178.7C31.9007 175.8 28.3007 172.95 24.3008 170.15C20.4008 167.35 16.8 164.2 13.5 160.7C10.3002 157.1 8.7002 153 8.7002 148.4C8.7002 143.2 10.2002 138.4 13.2002 134C16.2001 129.5 20.1005 125.601 24.9004 122.301C29.7004 118.901 34.8002 116.3 40.2002 114.5C45.7002 112.6 50.9008 111.65 55.8008 111.65ZM142.754 110.15C141.454 114.15 140.153 118.85 138.854 124.25C137.554 129.65 136.304 135.351 135.104 141.351C133.904 147.351 132.753 153.351 131.653 159.351C130.553 165.251 129.553 170.751 128.653 175.851C127.553 182.25 126.504 188.7 125.504 195.2C124.504 201.6 123.504 208.151 122.504 214.851L99.1035 217.551C99.8035 214.551 100.403 211.6 100.903 208.7C101.503 205.7 102.054 202.8 102.554 200C103.554 195.2 104.554 190.2 105.554 185C106.654 179.8 107.504 175.35 108.104 171.65L93.5537 173C93.1537 174.9 92.7535 176.95 92.3535 179.15C92.0535 181.35 91.6533 183.7 91.1533 186.2C90.6533 188.7 90.1533 191.151 89.6533 193.551C89.2534 195.851 88.8531 198.15 88.4531 200.45C87.9531 203.15 87.4037 205.851 86.8037 208.551C86.2037 211.251 85.6533 213.95 85.1533 216.65L62.0537 221.45C64.9537 207.45 67.6533 193.8 70.1533 180.5C71.5533 172.4 72.9535 164.2 74.3535 155.9C75.8535 147.601 77.2033 139.651 78.4033 132.051C79.6033 124.451 80.5035 117.65 81.1035 111.65C83.8033 111.75 86.0032 111.901 87.7031 112.101C89.5031 112.201 91.1534 112.3 92.6533 112.4C94.2533 112.5 96.0034 112.6 97.9033 112.7H105.403C103.703 119.8 102.004 126.9 100.304 134C98.7037 141.1 97.2037 148.25 95.8037 155.45L110.653 153.801C111.353 150.301 112.004 146.85 112.604 143.45C113.303 139.95 113.903 136.5 114.403 133.101C114.903 129.801 115.503 126.451 116.203 123.051C117.003 119.551 117.854 116.051 118.754 112.551C122.354 111.951 126.003 111.5 129.703 111.2C133.403 110.8 136.504 110.55 139.004 110.45C141.504 110.25 142.754 110.15 142.754 110.15ZM277.479 1.5C285.078 1.5 290.229 3.15027 292.929 6.4502C295.729 9.75019 297.129 14.2008 297.129 19.8008C297.129 24.9006 295.928 30.0502 293.528 35.25C291.128 40.3499 287.979 45.0003 284.079 49.2002C280.279 53.3002 276.079 56.5502 271.479 58.9502C273.279 62.9502 275.179 67.3504 277.179 72.1504C279.279 76.8503 281.228 81.3504 283.028 85.6504L286.028 93.1504C287.128 95.6504 288.179 98.1504 289.179 100.65L265.929 108.75L260.528 90.75C259.028 85.7503 257.629 80.9504 256.329 76.3506C255.129 71.6506 254.429 68.3502 254.229 66.4502L252.278 67.0508C251.978 68.6507 251.628 70.4009 251.229 72.3008C250.929 74.1007 250.579 76.1009 250.179 78.3008C249.779 80.5005 249.378 82.6502 248.979 84.75C248.579 86.7499 248.178 88.7501 247.778 90.75L245.079 105L222.419 110.875L224.887 110.75L224.115 114.021C225.363 114.092 226.611 114.152 227.859 114.2C230.459 114.3 233.06 114.351 235.66 114.351C243.06 114.351 250.11 114.101 256.81 113.601C263.609 113.101 269.86 112.501 275.56 111.801L273.91 119.9L272.56 126.95C272.06 129.55 271.61 131.601 271.21 133.101C270.11 133.401 269.01 133.651 267.91 133.851C266.81 134.051 265.709 134.201 264.609 134.301C263.51 134.401 262.36 134.55 261.16 134.75C260.06 134.95 258.959 135.151 257.859 135.351C256.359 142.75 255.109 149.151 254.109 154.551C253.209 159.951 252.36 165.151 251.56 170.15C250.86 175.05 250.01 180.451 249.01 186.351C247.31 196.451 245.81 206.701 244.51 217.101L217.51 221.301C218.61 215.801 219.71 210.35 220.81 204.95C222.01 199.45 223.109 194.05 224.109 188.75C227.909 169.75 231.01 151.55 233.41 134.15C232.31 133.95 231.16 133.851 229.96 133.851C228.76 133.751 227.61 133.751 226.51 133.851C224.11 134.051 221.76 133.75 219.46 132.95C219.56 132.15 219.609 131.3 219.609 130.4V129.2H196.986L192.337 155.9C193.937 155.8 195.437 155.75 196.837 155.75H211.387C212.287 155.75 213.087 155.701 213.787 155.601C213.687 157.001 213.537 158.401 213.337 159.801C213.137 161.101 212.936 162.451 212.736 163.851L211.387 171.95C209.287 171.95 206.236 171.901 202.236 171.801C198.337 171.601 194.187 171.451 189.787 171.351L182.887 215.601C181.187 215.901 179.487 216.2 177.787 216.5C176.187 216.8 174.537 217.151 172.837 217.551C170.037 218.051 166.987 218.651 163.687 219.351C160.387 220.051 157.486 220.701 154.986 221.301C156.386 216.501 157.737 211.05 159.037 204.95C160.337 198.75 161.537 192.451 162.637 186.051C163.837 179.651 164.937 173.7 165.937 168.2C166.936 162.7 167.737 158.151 168.337 154.551C169.437 147.851 170.486 141.101 171.486 134.301C172.586 127.401 173.637 120.401 174.637 113.301L220.847 110.954L228.579 72.3008C229.779 65.1008 231.079 57.7005 232.479 50.1006C233.879 42.5006 235.179 35.0005 236.379 27.6006C237.679 20.2006 238.679 13.25 239.379 6.75C245.079 4.95005 251.229 3.65057 257.829 2.85059C264.429 1.95064 270.979 1.50001 277.479 1.5ZM161.564 151.851C160.064 161.15 158.715 169.5 157.515 176.9C156.415 184.3 155.315 191.3 154.215 197.9C153.215 204.5 152.164 211.25 151.064 218.15C149.164 218.15 146.864 218.301 144.164 218.601C141.464 218.801 138.764 219.1 136.064 219.5C133.364 219.8 131.064 220.1 129.164 220.4C127.366 220.7 126.416 220.9 126.314 221C127.714 215.2 129.115 208.65 130.515 201.351C131.915 193.951 133.315 186.3 134.715 178.4C136.115 170.5 137.414 162.9 138.614 155.601C139.714 149.201 140.765 142.701 141.765 136.101C142.865 129.501 143.914 122.85 144.914 116.15L168.314 112.4L161.564 151.851ZM315.205 109.101C309.805 121.7 304.855 134.4 300.355 147.2C295.955 159.9 291.555 172.701 287.155 185.601C284.255 185.601 281.355 185.7 278.455 185.9C275.555 186.1 272.656 186.3 269.756 186.5C271.356 180.3 272.905 174.15 274.405 168.051C275.905 161.951 277.405 155.85 278.905 149.75C280.305 143.65 281.756 137.55 283.256 131.45C284.856 125.25 286.456 119.1 288.056 113C293.756 112.1 298.955 111.35 303.655 110.75C308.355 110.15 312.205 109.601 315.205 109.101ZM120.694 0C120.194 5.6 119.694 11.9508 119.194 19.0508C118.794 26.0507 118.395 33.3009 117.995 40.8008C117.695 48.3005 117.344 55.7002 116.944 63C116.744 69.8999 116.494 77.0503 116.194 84.4502C115.894 91.7501 115.595 99.2503 115.295 106.95C113.795 107.15 112.295 107.351 110.795 107.551C109.295 107.751 107.795 107.95 106.295 108.15C103.795 108.55 101.045 109 98.0449 109.5C95.0449 110 92.3443 110.451 89.9443 110.851C90.1443 109.151 90.3449 107.5 90.5449 105.9C90.7449 104.3 90.9445 102.701 91.1445 101.101L92.0449 92.7002C92.1449 91.3004 92.2447 90.0006 92.3447 88.8008C92.4447 87.6008 92.5445 86.5 92.6445 85.5H79.5947L73.5947 107.101C71.3948 107.401 68.7948 107.75 65.7949 108.15C62.7949 108.45 59.9945 108.751 57.3945 109.051C55.7946 109.251 54.1946 109.45 52.5947 109.65C51.0947 109.85 49.5443 110.05 47.9443 110.25L49.1201 106.351H48.7314C44.8314 106.351 40.4807 106.55 35.6807 106.95C30.9808 107.25 26.2809 107.801 21.5811 108.601C16.9811 109.301 12.8309 110.25 9.13086 111.45C10.2308 103.55 11.3811 95.6005 12.5811 87.6006C13.8811 79.6006 15.1814 71.9 16.4814 64.5C17.8814 57.0002 19.1809 50.2499 20.3809 44.25C21.6808 37.7501 22.9813 31.1501 24.2812 24.4502C25.5812 17.7503 26.9311 11.0001 28.3311 4.2002L54.5811 0.75L46.7812 34.6504C45.3813 40.5504 43.9307 46.9002 42.4307 53.7002C41.0307 60.4001 39.7312 66.9003 38.5312 73.2002C37.3313 79.5 36.3807 85.1001 35.6807 90C38.1806 89.8 40.8309 89.7002 43.6309 89.7002C46.5309 89.6002 49.0813 89.5508 51.2812 89.5508C51.3813 91.8507 51.5809 94.3005 51.8809 96.9004C51.8892 96.9703 51.8979 97.04 51.9062 97.1094L59.7949 70.9502C61.1949 66.2503 62.7948 60.9003 64.5947 54.9004C66.3947 48.9004 68.1951 42.7502 69.9951 36.4502C71.8951 30.1503 73.6451 24.2499 75.2451 18.75C76.945 13.1502 78.2949 8.45028 79.2949 4.65039C86.0949 4.15039 92.9952 3.55058 99.9951 2.85059C107.095 2.1506 113.995 1.19996 120.694 0ZM238.806 0.600586C238.106 2.80053 237.506 5.05064 237.006 7.35059C236.506 9.25055 236.006 11.2506 235.506 13.3506C235.106 15.3503 234.756 17.1502 234.456 18.75C233.156 18.85 231.305 18.9508 228.905 19.0508C226.505 19.0508 224.056 19.1002 221.556 19.2002H212.256L207.006 46.0508L215.706 45.6006C216.806 45.5006 217.906 45.4502 219.006 45.4502H225.456C226.356 45.4502 227.056 45.4008 227.556 45.3008C227.356 46.7005 227.156 48.1003 226.956 49.5C226.856 50.8 226.706 52.1508 226.506 53.5508L225.155 61.8008C224.655 61.9007 224.006 61.9502 223.206 61.9502H220.355C219.256 62.0502 218.105 62.1006 216.905 62.1006C215.706 62.1006 214.556 62.15 213.456 62.25C212.156 62.35 210.805 62.4004 209.405 62.4004C208.005 62.4004 206.505 62.4508 204.905 62.5508L199.806 90.1504L221.706 86.7002L220.206 103.801L171.756 111.301L189.731 13.7334C186.492 20.2267 183.311 26.7494 180.188 33.3008C177.788 38.6007 175.137 44.2007 172.237 50.1006C169.437 55.9005 166.787 61.3503 164.287 66.4502C161.887 71.4502 159.987 75.4502 158.587 78.4502C158.087 81.0501 157.438 83.9002 156.638 87C155.938 90.1 155.237 93.0506 154.537 95.8506C154.137 97.4505 153.687 99.1009 153.188 100.801C152.688 102.401 152.187 104.05 151.688 105.75L126.037 108.9L132.938 78.75C132.937 71.6501 132.737 64.3999 132.337 57C132.037 49.5001 131.638 42.0503 131.138 34.6504C130.738 27.2506 130.337 21.3007 129.938 16.8008C129.64 12.3345 129.49 10.0843 129.487 10.0508L153.938 0.75V19.0508C153.937 24.8506 153.887 30.1009 153.787 34.8008V46.9502C155.087 43.5502 156.638 39.3505 158.438 34.3506C160.337 29.3507 162.088 24.5007 163.688 19.8008C164.687 17.0008 165.637 14.2004 166.537 11.4004C167.537 8.5004 168.537 5.50038 169.537 2.40039L190.93 7.23047L191.405 4.65039L238.806 0.600586ZM95.9443 19.9502L92.4951 32.8506L83.1943 70.5C83.7943 70.5 84.8951 70.4506 86.4951 70.3506C88.195 70.2506 89.795 70.1508 91.2949 70.0508C92.7948 69.9508 93.6951 69.9004 93.9951 69.9004C93.9951 68.6004 94.1947 65.9502 94.5947 61.9502C94.9947 57.9503 95.3949 53.7504 95.7949 49.3506C95.9949 46.7506 96.1945 44.1004 96.3945 41.4004C96.6945 38.6004 96.9949 35.7505 97.2949 32.8506L98.1943 19.8008L95.9443 19.9502ZM263.979 22.2002C263.379 22.3002 262.829 22.3506 262.329 22.3506H260.829L256.028 46.2002C257.828 46.0002 260.029 45.2502 262.629 43.9502C265.329 42.5502 267.979 40.8505 270.579 38.8506C273.279 36.8506 275.529 34.8001 277.329 32.7002C279.129 30.6003 280.028 28.7503 280.028 27.1504C280.028 25.1504 278.829 23.85 276.429 23.25C274.129 22.55 271.078 22.2002 267.278 22.2002H263.979Z" fill="white"/>
</svg>
